# xmcd
#
# Track frame offsets:
#	150
#	18825
#	29087
#	40967
#	51170
#	64697
#	74640
#	86117
#	95970
#	111227
#	128470
#	142720
#	156970
#	172255
#
# Disc length: 2430 seconds
#
# Revision: 0
# Processed by: cddbd v1.5.1PL0 Copyright (c) Steve Scherf et al.
# Submitted via: dBpowerAMP V4.0
#
DISCID=ca097c0e
DTITLE=Toquinho - Seleção exclusiva para Classe Média
DYEAR=1999
DGENRE=MPB
TTITLE0=Aquarela
TTITLE1=Samba Para Vinicius
TTITLE2=Carta ao Tom
TTITLE3=O Caderno
TTITLE4=Regra 3
TTITLE5=Turbilhão
TTITLE6=Ao que vai chegar
TTITLE7=Samba da volta
TTITLE8=Cotidiano nº2
TTITLE9=Testamento
TTITLE10=Escravo da Alegria
TTITLE11=Tarde em itapuã
TTITLE12=À Sombra de um Jatobá
TTITLE13=Morena Flor
EXTD=
EXTT0=
EXTT1=
EXTT2=
EXTT3=
EXTT4=
EXTT5=
EXTT6=
EXTT7=
EXTT8=
EXTT9=
EXTT10=
EXTT11=
EXTT12=
EXTT13=
PLAYORDER=
